<svg width="292" height="209" viewBox="0 0 292 209" fill="none" xmlns="http://www.w3.org/2000/svg">
<g filter="url(#filter0_f_7_10937)">
<path d="M149.908 58.68C149.908 58.68 140.144 71.916 132.513 71.48C122.947 70.918 121.313 59.38 112.445 58.68C103.167 58.819 102.22 70.78 92.164 71.48C83.154 71.319 79.337 58.898 70.748 58.68C62.159 58.462 53.004 71.48 53.004 71.48" stroke="white" stroke-width="16" stroke-linecap="round"/>
<path d="M157.919 132.68C157.919 132.68 143.219 145.916 131.726 145.48C117.326 144.918 114.855 133.38 101.508 132.68C87.538 132.819 86.108 144.78 70.969 145.48C57.403 145.317 51.655 132.897 38.719 132.68C25.783 132.463 12 145.48 12 145.48" stroke="white" stroke-width="16" stroke-linecap="round"/>
<path d="M239.919 183.68C239.919 183.68 225.219 196.916 213.726 196.48C199.326 195.918 196.855 184.38 183.508 183.68C169.538 183.819 168.108 195.78 152.969 196.48C139.403 196.317 133.655 183.897 120.719 183.68C107.783 183.463 94 196.48 94 196.48" stroke="white" stroke-width="16" stroke-linecap="round"/>
<path d="M217.391 13.282C229.233 13.2662 240.805 16.8189 250.598 23.477C259.489 29.5043 266.593 37.8153 271.162 47.5365C275.732 57.2577 277.598 68.0302 276.566 78.7221C275.534 89.414 271.641 99.6304 265.296 108.298C258.951 116.965 250.389 123.764 240.509 127.979C229.944 132.454 218.307 133.764 207.011 131.749C195.716 129.734 185.249 124.482 176.883 116.63C165.935 106.379 159.251 92.3794 158.162 77.421C161.618 78.2311 165.156 78.6394 168.705 78.638C176.389 78.6344 183.949 76.702 190.693 73.0181C197.436 69.3341 203.147 64.0164 207.301 57.5524C211.456 51.0884 213.922 43.685 214.472 36.0207C215.023 28.3564 213.641 20.6765 210.453 13.685C212.756 13.4167 215.073 13.2822 217.391 13.282Z" fill="#713FFD"/>
<g filter="url(#filter1_f_7_10937)">
<path d="M257.582 31.7361C244.249 19.7316 226.784 17.394 218.571 26.515C210.359 35.6359 214.509 52.7614 227.842 64.7659C241.174 76.7704 258.639 79.108 266.852 69.987C275.065 60.8661 270.914 43.7406 257.582 31.7361Z" fill="#A586FC"/>
</g>
</g>
<defs>
<filter id="filter0_f_7_10937" x="0" y="9.28198" width="280.843" height="199.208" filterUnits="userSpaceOnUse" color-interpolation-filters="sRGB">
<feFlood flood-opacity="0" result="BackgroundImageFix"/>
<feBlend mode="normal" in="SourceGraphic" in2="BackgroundImageFix" result="shape"/>
<feGaussianBlur stdDeviation="2" result="effect1_foregroundBlur_7_10937"/>
</filter>
<filter id="filter1_f_7_10937" x="194.355" y="0.951172" width="96.7133" height="94.5996" filterUnits="userSpaceOnUse" color-interpolation-filters="sRGB">
<feFlood flood-opacity="0" result="BackgroundImageFix"/>
<feBlend mode="normal" in="SourceGraphic" in2="BackgroundImageFix" result="shape"/>
<feGaussianBlur stdDeviation="10" result="effect1_foregroundBlur_7_10937"/>
</filter>
</defs>
</svg>
