<svg width="422" height="355" viewBox="0 0 422 355" fill="none" xmlns="http://www.w3.org/2000/svg">
<g filter="url(#filter0_f_7_11694)">
<path d="M137.686 258.552C137.686 258.552 274.775 259.866 304.456 251.246C334.137 242.626 334.099 197.888 304.456 186.86C274.813 175.832 264.682 215.251 264.682 215.251" stroke="#D0D0D0" stroke-width="20" stroke-linecap="round"/>
<path d="M92.709 304.569C92.709 304.569 193.317 295.479 237.67 304.569C282.023 313.659 267.9 339.736 246.88 340.928C225.86 342.12 206.463 328.308 206.463 328.308" stroke="#D0D0D0" stroke-width="20" stroke-linecap="round"/>
<path d="M306.846 304.502H346.846" stroke="#D0D0D0" stroke-width="20" stroke-linecap="round"/>
<path d="M107.268 6.72311C114.278 6.72136 121.27 7.42963 128.137 8.83711C141.391 11.5668 153.974 16.8888 165.164 24.4971C180.667 35.0048 193.053 49.4945 201.021 66.4436C208.989 83.3926 212.244 102.175 210.444 120.817C208.645 139.458 201.857 157.271 190.793 172.383C179.73 187.495 164.801 199.347 147.574 206.695C141.312 209.356 134.8 211.388 128.136 212.76C113.685 215.69 98.7755 215.508 84.4007 212.224C70.0258 208.941 56.5156 202.632 44.7701 193.718C33.0246 184.804 23.3133 173.489 16.2833 160.528C9.25331 147.566 5.0659 133.256 4.00005 118.549C15.3315 121.201 27.1025 121.372 38.506 119.049C48.7391 116.953 58.4593 112.863 67.112 107.012C79.9743 98.3288 90.0423 86.1017 96.0961 71.8121C98.1416 66.9726 99.7028 61.9424 100.757 56.7951C103.004 45.7664 102.921 34.3898 100.513 23.3951C99.3017 17.8974 97.5104 12.5437 95.1691 7.42412C99.1851 6.95677 103.225 6.7227 107.268 6.72311Z" fill="#713FFD"/>
<g filter="url(#filter1_f_7_11694)">
<path d="M177.339 38.8964C154.095 17.9669 123.644 13.8916 109.325 29.7941C95.0065 45.6965 102.242 75.5547 125.487 96.4842C148.732 117.414 179.182 121.489 193.501 105.586C207.82 89.6841 200.584 59.8259 177.339 38.8964Z" fill="#A586FC"/>
</g>
<g filter="url(#filter2_d_7_11694)">
<path d="M291.345 280.002H99.913C81.3426 279.988 63.4976 272.791 50.1137 259.917C36.7298 247.044 28.8447 229.492 28.1092 210.936C27.3737 192.38 33.8448 174.259 46.1677 160.366C58.4906 146.473 75.71 137.886 94.221 136.402C96.8608 117.762 105.278 100.419 118.289 86.8123C131.299 73.2056 148.248 64.0204 166.752 60.5488C185.255 57.0772 204.381 59.4939 221.439 67.4591C238.497 75.4243 252.628 88.537 261.845 104.952C278.75 99.1004 297.015 98.4166 314.311 102.988C331.606 107.56 347.148 117.18 358.953 130.621C370.759 144.062 378.293 160.715 380.594 178.456C382.896 196.196 379.861 214.221 371.877 230.229C367.192 244.693 358.045 257.3 345.749 266.242C333.453 275.184 318.641 280.002 303.437 280.002H291.345Z" fill="url(#paint0_linear_7_11694)"/>
<path d="M303.437 279.002C311.156 279.002 318.746 277.769 325.996 275.338C333.006 272.988 339.587 269.557 345.557 265.142C351.458 260.778 356.631 255.551 360.932 249.605C365.287 243.585 368.649 236.962 370.925 229.922L370.949 229.849L370.983 229.782C374.01 223.734 376.341 217.336 377.911 210.766C379.526 204.005 380.345 197.019 380.345 190.002C380.345 183.963 379.737 177.928 378.537 172.064C377.368 166.351 375.623 160.73 373.352 155.36C371.121 150.086 368.36 145 365.146 140.242C361.962 135.529 358.305 131.097 354.278 127.07C350.25 123.042 345.818 119.385 341.105 116.201C336.347 112.987 331.261 110.226 325.988 107.996C320.617 105.724 314.997 103.979 309.283 102.81C303.42 101.61 297.384 101.002 291.345 101.002C281.346 101.002 271.531 102.648 262.172 105.893L261.383 106.167L260.973 105.439C253.357 91.8967 242.279 80.5241 228.937 72.5503C222.189 68.5177 214.94 65.4014 207.391 63.2881C199.602 61.1079 191.512 60.0024 183.345 60.0024C172.361 60.0024 161.638 61.9794 151.475 65.8785C141.657 69.6451 132.65 75.0862 124.705 82.0504C116.806 88.9747 110.251 97.1446 105.221 106.333C100.069 115.748 96.7006 125.91 95.2113 136.537L95.0998 137.333L94.299 137.396C85.3408 138.097 76.7219 140.455 68.6818 144.406C60.8694 148.244 53.8932 153.436 47.947 159.837C35.7289 172.989 29 190.126 29 208.089C29 217.663 30.8748 226.949 34.5723 235.691C36.3495 239.893 38.5491 243.946 41.1102 247.736C43.6472 251.492 46.5607 255.023 49.7699 258.232C52.9791 261.441 56.5104 264.355 60.2655 266.892C64.0565 269.453 68.109 271.653 72.3106 273.43C81.0525 277.127 90.3391 279.002 99.9127 279.002H291.345H303.437ZM303.437 280.002H291.345H99.9127C60.1966 280.002 28 247.805 28 208.089C28 170.288 57.1646 139.299 94.221 136.399C100.35 92.6598 137.917 59.0024 183.345 59.0024C217.048 59.0024 246.422 77.5256 261.845 104.948C271.087 101.743 281.012 100.002 291.345 100.002C341.051 100.002 381.345 140.297 381.345 190.002C381.345 204.461 377.936 218.123 371.877 230.229C362.54 259.111 335.427 280.002 303.437 280.002Z" fill="white" fill-opacity="0.5"/>
</g>
</g>
<defs>
<filter id="filter0_f_7_11694" x="0" y="2.72314" width="385.345" height="352.278" filterUnits="userSpaceOnUse" color-interpolation-filters="sRGB">
<feFlood flood-opacity="0" result="BackgroundImageFix"/>
<feBlend mode="normal" in="SourceGraphic" in2="BackgroundImageFix" result="shape"/>
<feGaussianBlur stdDeviation="2" result="effect1_foregroundBlur_7_11694"/>
</filter>
<filter id="filter1_f_7_11694" x="81.9738" y="0.0932617" width="138.879" height="135.194" filterUnits="userSpaceOnUse" color-interpolation-filters="sRGB">
<feFlood flood-opacity="0" result="BackgroundImageFix"/>
<feBlend mode="normal" in="SourceGraphic" in2="BackgroundImageFix" result="shape"/>
<feGaussianBlur stdDeviation="10" result="effect1_foregroundBlur_7_11694"/>
</filter>
<filter id="filter2_d_7_11694" x="8" y="31.0024" width="413.345" height="281" filterUnits="userSpaceOnUse" color-interpolation-filters="sRGB">
<feFlood flood-opacity="0" result="BackgroundImageFix"/>
<feColorMatrix in="SourceAlpha" type="matrix" values="0 0 0 0 0 0 0 0 0 0 0 0 0 0 0 0 0 0 127 0" result="hardAlpha"/>
<feOffset dx="10" dy="2"/>
<feGaussianBlur stdDeviation="15"/>
<feColorMatrix type="matrix" values="0 0 0 0 0.258824 0 0 0 0 0.627451 0 0 0 0 0.941176 0 0 0 0.596 0"/>
<feBlend mode="normal" in2="BackgroundImageFix" result="effect1_dropShadow_7_11694"/>
<feBlend mode="normal" in="SourceGraphic" in2="effect1_dropShadow_7_11694" result="shape"/>
</filter>
<linearGradient id="paint0_linear_7_11694" x1="204.698" y1="59.0049" x2="307.341" y2="307.169" gradientUnits="userSpaceOnUse">
<stop stop-color="white" stop-opacity="0.604"/>
<stop offset="1" stop-color="white" stop-opacity="0.2"/>
</linearGradient>
</defs>
</svg>
