<svg width="423" height="350" viewBox="0 0 423 350" fill="none" xmlns="http://www.w3.org/2000/svg">
<g filter="url(#filter0_f_7_12313)">
<path d="M232.15 251.254C232.15 251.254 302.276 253.414 330.176 245.312C359.857 236.692 359.819 191.954 330.176 180.926C300.533 169.898 290.402 209.317 290.402 209.317" stroke="#D0D0D0" stroke-width="20" stroke-linecap="round"/>
<path d="M188.85 294.917C188.85 294.917 219.038 289.547 263.391 298.636C307.744 307.725 293.621 333.803 272.601 334.995C251.581 336.187 232.184 322.375 232.184 322.375" stroke="#D0D0D0" stroke-width="20" stroke-linecap="round"/>
<path d="M332.566 298.568H372.566" stroke="#D0D0D0" stroke-width="20" stroke-linecap="round"/>
<path d="M131.865 228.842C129.669 228.871 107.389 263.653 107.389 277.171C107.389 283.662 109.968 289.888 114.558 294.478C119.148 299.068 125.374 301.647 131.865 301.647C138.356 301.647 144.582 299.068 149.172 294.478C153.762 289.888 156.341 283.662 156.341 277.171C156.341 263.653 134.061 228.818 131.865 228.842Z" fill="#42A0F0"/>
<path d="M145.498 269.871C143.052 270.619 142.195 274.907 143.583 279.45C144.972 283.992 148.08 287.068 150.526 286.32C152.972 285.572 153.829 281.284 152.441 276.742C151.052 272.199 147.943 269.124 145.498 269.871Z" fill="white"/>
<path d="M65.921 277.929C64.109 277.949 45.721 306.658 45.721 317.816C45.721 323.173 47.8492 328.311 51.6375 332.099C55.4257 335.888 60.5636 338.016 65.921 338.016C71.2784 338.016 76.4163 335.888 80.2046 332.099C83.9928 328.311 86.121 323.173 86.121 317.816C86.121 306.658 67.734 277.909 65.921 277.929Z" fill="#42A0F0"/>
<path d="M77.1731 311.792C75.1545 312.409 74.4471 315.948 75.593 319.697C76.739 323.445 79.3044 325.983 81.323 325.366C83.3416 324.749 84.049 321.21 82.903 317.462C81.7571 313.713 79.1917 311.175 77.1731 311.792Z" fill="white"/>
<path d="M100.544 8.34885C107.097 8.34746 113.633 9.00983 120.053 10.3258C132.443 12.8779 144.207 17.8532 154.668 24.9658C169.161 34.7891 180.74 48.3352 188.189 64.1803C195.638 80.0253 198.681 97.5843 196.998 115.012C195.315 132.439 188.969 149.092 178.626 163.219C168.283 177.346 154.326 188.426 138.221 195.295C132.366 197.782 126.279 199.681 120.049 200.964C106.539 203.704 92.6007 203.534 79.1619 200.465C65.7231 197.396 53.0926 191.498 42.112 183.165C31.1314 174.831 22.0528 164.254 15.481 152.136C8.90932 140.019 4.99538 126.64 3.99997 112.891C9.63318 114.211 15.4 114.877 21.186 114.875C36.0883 114.899 50.6547 110.449 63 102.102C75.0248 93.9866 84.4383 82.5584 90.1 69.2018C93.9976 59.9924 95.9965 50.0911 95.977 40.0908C95.9777 34.6601 95.3907 29.2452 94.226 23.9408C93.0922 18.801 91.4162 13.7959 89.226 9.00984C92.9827 8.57077 96.7617 8.35007 100.544 8.34885Z" fill="#713FFD"/>
<g filter="url(#filter1_f_7_12313)">
<path d="M166.048 38.4269C144.318 18.8611 115.851 15.0515 102.465 29.918C89.0788 44.7845 95.8431 72.6975 117.573 92.2633C139.303 111.829 167.77 115.639 181.156 100.772C194.542 85.9057 187.778 57.9928 166.048 38.4269Z" fill="#A586FC"/>
</g>
<g filter="url(#filter2_d_7_12313)">
<path d="M292.066 275.069H100.634C82.0636 275.055 64.2185 267.857 50.8346 254.984C37.4507 242.11 29.5657 224.558 28.8302 206.002C28.0946 187.446 34.5657 169.325 46.8886 155.433C59.2116 141.54 76.431 132.953 94.942 131.469C97.5818 112.829 105.999 95.4854 119.01 81.8787C132.02 68.272 148.969 59.0868 167.473 55.6152C185.976 52.1436 205.102 54.5604 222.16 62.5255C239.218 70.4907 253.349 83.6034 262.566 100.019C279.471 94.1668 297.736 93.4831 315.032 98.0548C332.327 102.626 347.869 112.246 359.674 125.687C371.479 139.128 379.014 155.781 381.315 173.522C383.617 191.263 380.582 209.287 372.598 225.296C367.912 239.759 358.765 252.367 346.47 261.309C334.174 270.251 319.362 275.068 304.158 275.069H292.066Z" fill="url(#paint0_linear_7_12313)"/>
<path d="M304.158 274.068C311.877 274.068 319.467 272.836 326.717 270.405C333.727 268.054 340.309 264.624 346.278 260.209C352.179 255.845 357.352 250.617 361.653 244.671C366.008 238.651 369.37 232.029 371.646 224.988L371.67 224.916L371.704 224.848C374.731 218.8 377.062 212.402 378.632 205.832C380.247 199.072 381.066 192.086 381.066 185.068C381.066 179.029 380.458 172.994 379.258 167.131C378.089 161.417 376.344 155.797 374.073 150.426C371.842 145.153 369.081 140.066 365.867 135.308C362.683 130.596 359.026 126.164 354.999 122.136C350.971 118.108 346.539 114.452 341.826 111.268C337.068 108.053 331.982 105.293 326.709 103.062C321.338 100.79 315.718 99.0458 310.004 97.8765C304.141 96.6767 298.106 96.0683 292.066 96.0683C282.067 96.0683 272.252 97.714 262.893 100.96L262.104 101.233L261.694 100.505C254.078 86.9631 243 75.5905 229.658 67.6167C222.91 63.5841 215.661 60.4678 208.112 58.3545C200.323 56.1743 192.233 55.0688 184.066 55.0688C173.082 55.0688 162.359 57.0458 152.196 60.9449C142.378 64.7115 133.371 70.1526 125.426 77.1168C117.527 84.0411 110.972 92.211 105.942 101.4C100.79 110.814 97.4216 120.976 95.9323 131.604L95.8209 132.399L95.02 132.462C86.0618 133.163 77.443 135.522 69.4028 139.472C61.5904 143.311 54.6142 148.502 48.668 154.903C36.4499 168.056 29.721 185.192 29.721 203.156C29.721 212.729 31.5958 222.016 35.2933 230.758C37.0705 234.959 39.2702 239.012 41.8313 242.803C44.3682 246.558 47.2818 250.089 50.4909 253.298C53.7001 256.508 57.2314 259.421 60.9865 261.958C64.7775 264.519 68.83 266.719 73.0317 268.496C81.7735 272.194 91.0602 274.068 100.634 274.068H292.066H304.158ZM304.158 275.068H292.066H100.634C60.9176 275.068 28.721 242.872 28.721 203.156C28.721 165.355 57.8857 134.366 94.942 131.465C101.071 87.7262 138.638 54.0688 184.066 54.0688C217.769 54.0688 247.143 72.592 262.566 100.015C271.808 96.8094 281.733 95.0683 292.066 95.0683C341.772 95.0683 382.066 135.363 382.066 185.068C382.066 199.528 378.657 213.189 372.598 225.296C363.261 254.178 336.148 275.068 304.158 275.068Z" fill="white" fill-opacity="0.5"/>
</g>
</g>
<defs>
<filter id="filter0_f_7_12313" x="-3.05176e-05" y="4.34863" width="386.566" height="344.719" filterUnits="userSpaceOnUse" color-interpolation-filters="sRGB">
<feFlood flood-opacity="0" result="BackgroundImageFix"/>
<feBlend mode="normal" in="SourceGraphic" in2="BackgroundImageFix" result="shape"/>
<feGaussianBlur stdDeviation="2" result="effect1_foregroundBlur_7_12313"/>
</filter>
<filter id="filter1_f_7_12313" x="75.5921" y="0.849121" width="132.437" height="128.992" filterUnits="userSpaceOnUse" color-interpolation-filters="sRGB">
<feFlood flood-opacity="0" result="BackgroundImageFix"/>
<feBlend mode="normal" in="SourceGraphic" in2="BackgroundImageFix" result="shape"/>
<feGaussianBlur stdDeviation="10" result="effect1_foregroundBlur_7_12313"/>
</filter>
<filter id="filter2_d_7_12313" x="8.72104" y="26.0688" width="413.345" height="281" filterUnits="userSpaceOnUse" color-interpolation-filters="sRGB">
<feFlood flood-opacity="0" result="BackgroundImageFix"/>
<feColorMatrix in="SourceAlpha" type="matrix" values="0 0 0 0 0 0 0 0 0 0 0 0 0 0 0 0 0 0 127 0" result="hardAlpha"/>
<feOffset dx="10" dy="2"/>
<feGaussianBlur stdDeviation="15"/>
<feColorMatrix type="matrix" values="0 0 0 0 0.258824 0 0 0 0 0.627451 0 0 0 0 0.941176 0 0 0 0.596 0"/>
<feBlend mode="normal" in2="BackgroundImageFix" result="effect1_dropShadow_7_12313"/>
<feBlend mode="normal" in="SourceGraphic" in2="effect1_dropShadow_7_12313" result="shape"/>
</filter>
<linearGradient id="paint0_linear_7_12313" x1="205.419" y1="54.0713" x2="308.062" y2="302.235" gradientUnits="userSpaceOnUse">
<stop stop-color="white" stop-opacity="0.604"/>
<stop offset="1" stop-color="white" stop-opacity="0.2"/>
</linearGradient>
</defs>
</svg>
