<svg width="420" height="354" viewBox="0 0 420 354" fill="none" xmlns="http://www.w3.org/2000/svg">
<g filter="url(#filter0_f_7_12333)">
<path d="M166.352 220.426C166.983 220.444 173.387 245.674 173.387 255.478C173.387 265.282 170.237 273.231 166.352 273.231C162.467 273.231 159.317 265.283 159.317 255.479C159.317 245.675 165.717 220.409 166.352 220.426Z" fill="#42A0F0"/>
<path d="M165.279 249.848C166.307 250.205 166.619 252.425 165.977 254.808C165.335 257.192 163.981 258.834 162.953 258.478C161.926 258.122 161.612 255.9 162.255 253.517C162.898 251.134 164.25 249.491 165.279 249.848Z" fill="white"/>
<path d="M226.283 220.426C226.914 220.444 233.318 245.674 233.318 255.478C233.318 265.282 230.168 273.231 226.283 273.231C222.398 273.231 219.248 265.283 219.248 255.479C219.248 245.675 225.648 220.409 226.283 220.426Z" fill="#42A0F0"/>
<path d="M225.21 249.848C226.238 250.205 226.55 252.425 225.908 254.808C225.266 257.192 223.912 258.834 222.884 258.478C221.857 258.122 221.543 255.9 222.186 253.517C222.829 251.134 224.181 249.491 225.21 249.848Z" fill="white"/>
<path d="M286.214 217.426C286.845 217.444 293.249 242.674 293.249 252.478C293.249 262.282 290.099 270.231 286.214 270.231C282.329 270.231 279.179 262.283 279.179 252.479C279.179 242.675 285.579 217.409 286.214 217.426Z" fill="#42A0F0"/>
<path d="M285.141 246.848C286.169 247.205 286.481 249.425 285.839 251.808C285.197 254.192 283.843 255.834 282.815 255.478C281.788 255.122 281.474 252.9 282.117 250.517C282.76 248.134 284.112 246.491 285.141 246.848Z" fill="white"/>
<path d="M194.555 287.426C195.186 287.444 201.59 312.674 201.59 322.478C201.59 332.282 198.44 340.231 194.555 340.231C190.67 340.231 187.52 332.283 187.52 322.479C187.52 312.675 193.92 287.409 194.555 287.426Z" fill="#42A0F0"/>
<path d="M193.482 316.848C194.51 317.205 194.822 319.425 194.18 321.808C193.538 324.192 192.184 325.834 191.156 325.478C190.129 325.122 189.815 322.9 190.458 320.517C191.101 318.134 192.453 316.491 193.482 316.848Z" fill="white"/>
<path d="M254.486 287.426C255.117 287.444 261.521 312.674 261.521 322.478C261.521 332.282 258.371 340.231 254.486 340.231C250.601 340.231 247.451 332.283 247.451 322.479C247.451 312.675 253.851 287.409 254.486 287.426Z" fill="#42A0F0"/>
<path d="M253.413 316.848C254.441 317.205 254.753 319.425 254.111 321.808C253.469 324.192 252.115 325.834 251.087 325.478C250.06 325.122 249.746 322.9 250.389 320.517C251.032 318.134 252.384 316.491 253.413 316.848Z" fill="white"/>
<path d="M317.942 287.426C318.573 287.444 324.977 312.674 324.977 322.478C324.977 332.282 321.827 340.231 317.942 340.231C314.057 340.231 310.907 332.283 310.907 322.479C310.907 312.675 317.307 287.409 317.942 287.426Z" fill="#42A0F0"/>
<path d="M316.869 316.848C317.897 317.205 318.209 319.425 317.567 321.808C316.925 324.192 315.571 325.834 314.543 325.478C313.516 325.122 313.202 322.9 313.845 320.517C314.488 318.134 315.84 316.491 316.869 316.848Z" fill="white"/>
<path d="M100.544 8.34885C107.097 8.34746 113.633 9.00983 120.053 10.3258C132.443 12.8779 144.207 17.8532 154.668 24.9658C169.161 34.7891 180.74 48.3352 188.189 64.1803C195.638 80.0253 198.681 97.5843 196.998 115.012C195.315 132.439 188.969 149.092 178.626 163.219C168.283 177.346 154.326 188.426 138.221 195.295C132.366 197.782 126.279 199.681 120.049 200.964C106.539 203.704 92.6007 203.534 79.1619 200.465C65.7231 197.396 53.0926 191.498 42.112 183.165C31.1314 174.831 22.0528 164.254 15.481 152.136C8.90932 140.019 4.99538 126.64 3.99997 112.891C9.63318 114.211 15.4 114.877 21.186 114.875C36.0883 114.899 50.6547 110.449 63 102.102C75.0248 93.9866 84.4383 82.5584 90.1 69.2018C93.9976 59.9924 95.9965 50.0911 95.977 40.0908C95.9777 34.6601 95.3907 29.2452 94.226 23.9408C93.0922 18.801 91.4162 13.7959 89.226 9.00984C92.9827 8.57077 96.7617 8.35007 100.544 8.34885Z" fill="#713FFD"/>
<g filter="url(#filter1_f_7_12333)">
<path d="M166.048 38.4269C144.318 18.8611 115.85 15.0515 102.465 29.918C89.0787 44.7845 95.8431 72.6975 117.573 92.2633C139.303 111.829 167.77 115.639 181.156 100.772C194.542 85.9057 187.778 57.9928 166.048 38.4269Z" fill="#A586FC"/>
</g>
<path d="M94.521 247.551H134.932L111.703 281.662L138.863 282.176L81.855 349.651L95.668 298.207H70.381L94.521 247.551Z" fill="url(#paint0_linear_7_12333)"/>
<g filter="url(#filter2_d_7_12333)">
<path d="M289.066 279.069H97.634C79.0636 279.055 61.2185 271.857 47.8346 258.984C34.4507 246.11 26.5657 228.558 25.8302 210.002C25.0946 191.446 31.5657 173.325 43.8886 159.433C56.2116 145.54 73.431 136.953 91.942 135.469C94.5818 116.829 102.999 99.4854 116.01 85.8787C129.02 72.272 145.969 63.0868 164.473 59.6152C182.976 56.1436 202.102 58.5604 219.16 66.5255C236.218 74.4907 250.349 87.6034 259.566 104.019C276.471 98.1669 294.736 97.4831 312.031 102.054C329.326 106.626 344.867 116.245 356.673 129.686C368.478 143.126 376.013 159.779 378.315 177.519C380.617 195.259 377.583 213.283 369.6 229.292C364.915 243.757 355.768 256.365 343.472 265.308C331.176 274.251 316.362 279.068 301.158 279.069H289.066Z" fill="url(#paint1_linear_7_12333)"/>
<path d="M301.158 278.068C308.878 278.068 316.469 276.836 323.719 274.405C330.73 272.054 337.311 268.623 343.281 264.208C349.183 259.844 354.356 254.616 358.657 248.669C363.011 242.649 366.373 236.026 368.649 228.984L368.672 228.912L368.706 228.844C371.732 222.797 374.062 216.399 375.632 209.829C377.247 203.069 378.066 196.084 378.066 189.068C378.066 183.029 377.458 176.994 376.258 171.131C375.089 165.417 373.344 159.797 371.073 154.426C368.842 149.153 366.082 144.066 362.867 139.308C359.683 134.596 356.027 130.164 351.999 126.136C347.971 122.108 343.54 118.452 338.827 115.268C334.069 112.053 328.982 109.293 323.709 107.062C318.338 104.79 312.718 103.046 307.004 101.877C301.141 100.677 295.106 100.068 289.066 100.068C279.067 100.068 269.252 101.714 259.893 104.96L259.104 105.233L258.694 104.505C251.078 90.9632 240 79.5905 226.658 71.6167C219.91 67.5841 212.661 64.4679 205.112 62.3546C197.323 60.1743 189.233 59.0688 181.066 59.0688C170.082 59.0688 159.359 61.0458 149.196 64.9449C139.378 68.7115 130.371 74.1526 122.426 81.1168C114.527 88.0411 107.972 96.211 102.942 105.4C97.7895 114.814 94.4216 124.976 92.9323 135.604L92.8208 136.399L92.02 136.462C83.0618 137.163 74.4429 139.522 66.4028 143.472C58.5904 147.311 51.6142 152.502 45.668 158.903C33.4499 172.056 26.721 189.192 26.721 207.156C26.721 216.729 28.5958 226.016 32.2933 234.758C34.0705 238.959 36.2701 243.012 38.8312 246.803C41.3682 250.558 44.2817 254.089 47.4909 257.298C50.7001 260.508 54.2314 263.421 57.9865 265.958C61.7775 268.519 65.83 270.719 70.0316 272.496C78.7735 276.194 88.0601 278.068 97.6337 278.068H289.066H301.158ZM301.158 279.068H289.066H97.6337C57.9176 279.068 25.721 246.872 25.721 207.156C25.721 169.355 54.8856 138.366 91.942 135.465C98.0714 91.7262 135.638 58.0688 181.066 58.0688C214.769 58.0688 244.143 76.5921 259.566 104.015C268.808 100.81 278.733 99.0683 289.066 99.0683C338.772 99.0683 379.066 139.363 379.066 189.068C379.066 203.525 375.657 217.187 369.6 229.291C360.265 258.177 333.152 279.068 301.158 279.068Z" fill="white" fill-opacity="0.5"/>
</g>
</g>
<defs>
<filter id="filter0_f_7_12333" x="0" y="4.34863" width="383.066" height="349.302" filterUnits="userSpaceOnUse" color-interpolation-filters="sRGB">
<feFlood flood-opacity="0" result="BackgroundImageFix"/>
<feBlend mode="normal" in="SourceGraphic" in2="BackgroundImageFix" result="shape"/>
<feGaussianBlur stdDeviation="2" result="effect1_foregroundBlur_7_12333"/>
</filter>
<filter id="filter1_f_7_12333" x="75.592" y="0.849121" width="132.437" height="128.992" filterUnits="userSpaceOnUse" color-interpolation-filters="sRGB">
<feFlood flood-opacity="0" result="BackgroundImageFix"/>
<feBlend mode="normal" in="SourceGraphic" in2="BackgroundImageFix" result="shape"/>
<feGaussianBlur stdDeviation="10" result="effect1_foregroundBlur_7_12333"/>
</filter>
<filter id="filter2_d_7_12333" x="5.72101" y="30.0688" width="413.345" height="281" filterUnits="userSpaceOnUse" color-interpolation-filters="sRGB">
<feFlood flood-opacity="0" result="BackgroundImageFix"/>
<feColorMatrix in="SourceAlpha" type="matrix" values="0 0 0 0 0 0 0 0 0 0 0 0 0 0 0 0 0 0 127 0" result="hardAlpha"/>
<feOffset dx="10" dy="2"/>
<feGaussianBlur stdDeviation="15"/>
<feColorMatrix type="matrix" values="0 0 0 0 0.258824 0 0 0 0 0.627451 0 0 0 0 0.941176 0 0 0 0.596 0"/>
<feBlend mode="normal" in2="BackgroundImageFix" result="effect1_dropShadow_7_12333"/>
<feBlend mode="normal" in="SourceGraphic" in2="effect1_dropShadow_7_12333" result="shape"/>
</filter>
<linearGradient id="paint0_linear_7_12333" x1="98.3216" y1="298.601" x2="66.3332" y2="286.874" gradientUnits="userSpaceOnUse">
<stop stop-color="#FFD100"/>
<stop offset="1" stop-color="#FFF0AA"/>
</linearGradient>
<linearGradient id="paint1_linear_7_12333" x1="202.419" y1="58.0713" x2="305.062" y2="306.235" gradientUnits="userSpaceOnUse">
<stop stop-color="white" stop-opacity="0.604"/>
<stop offset="1" stop-color="white" stop-opacity="0.2"/>
</linearGradient>
</defs>
</svg>
