<?xml version="1.0" standalone="no"?><!DOCTYPE svg PUBLIC "-//W3C//DTD SVG 1.1//EN" "http://www.w3.org/Graphics/SVG/1.1/DTD/svg11.dtd"><svg t="1721641548029" class="icon" viewBox="0 0 1024 1024" version="1.1" xmlns="http://www.w3.org/2000/svg" p-id="5043" xmlns:xlink="http://www.w3.org/1999/xlink" width="200" height="200"><path d="M995.613897 266.76219a3.402874 3.402874 0 0 1-1.245396 4.64827l-402.997867 232.671488-24.59413-42.598679 366.283092-211.473259a45.799333 45.799333 0 0 1 62.554301 16.75218z" fill="#F2EBFF" p-id="5044"></path><path d="M996.065754 268.469205a3.402874 3.402874 0 0 1-1.701437 2.942649l-403.045284 232.678461-24.601103-42.605652L933.056806 250.004432a45.799333 45.799333 0 0 1 62.548723 16.735444 3.388927 3.388927 0 0 1 0.460225 1.701437m27.892407 0a31.33712 31.33712 0 0 0-4.183861-15.64764 73.69174 73.69174 0 0 0-100.649751-26.971958l-366.310984 211.508124-24.154825 13.946203 13.946204 24.15482499 24.60110301 42.60565201 13.94620399 24.154825 24.154824-13.946204 403.045285-232.678461A31.378958 31.378958 0 0 0 1024 268.469205z" fill="#6244E2" p-id="5045"></path><path d="M445.901968 627.890765a15.034007 15.034007 0 0 1 5.494804-20.528812L570.14869599 538.802416a1.701437 1.701437 0 0 0 0.62757901-2.32901601l-40.276636-69.73101799a1.701437 1.701437 0 0 0-2.32901601-0.627579l-131.77767799 76.076541-318.83810699 184.089887c-46.817406 27.02774301-63.664419 86.84300999-36.99927801 133.883555a191.146667 191.146667 0 0 0 261.881811 71.306939l73.482547-42.424351a191.146667 191.146667 0 0 0 69.98205-261.156609z m-162.319864 265.995941a135.877862 135.877862 0 0 1-185.80527-49.969247 70.302812 70.302812 0 0 1 25.925992-95.824365l225.175403-130.104134a21.393476 21.393476 0 0 1 29.217297 7.879605l24.489534 42.410405a135.877862 135.877862 0 0 1-49.732162 185.610024z" fill="#AF9CFF" p-id="5046"></path><path d="M571.013361 537.310172a1.701437 1.701437 0 0 1-0.850719 1.47829799l-118.751924 68.55953701a15.020061 15.020061 0 0 0-5.494804 20.528812 191.062989 191.062989 0 0 1-69.968103 261.11477l-73.482547 42.424351a191.146667 191.146667 0 0 1-261.86786501-71.306939 96.9819 96.9819 0 0 1-12.67709899-47.97494 99.269077 99.269077 0 0 1 49.676377-85.894668l318.838107-184.089888 131.777678-76.07654101a1.701437 1.701437 0 0 1 2.329016 0.62758001l40.276636 69.731018a1.687491 1.687491 0 0 1 0.223139 0.850718m-482.538645 271.76967a69.731018 69.731018 0 0 0 9.274226 34.865509 135.877862 135.877862 0 0 0 185.777378 50.025032l69.298686-40.053497a135.808131 135.808131 0 0 0 49.732162-185.610024l-24.489534-42.410405a21.393476 21.393476 0 0 0-29.217297-7.879605l-225.14751099 129.992564a70.400436 70.400436 0 0 0-35.22811001 61.070426m510.431052-271.74177801a29.635683 29.635683 0 0 0-3.974668-14.79692199l-40.276636-69.73101799a29.621736 29.621736 0 0 0-40.44399-10.83620001l-131.777678 76.076541-318.838107 184.089887a127.468301 127.468301 0 0 0-63.622581 110.049493 125.432155 125.432155 0 0 0 16.303112 61.739843 218.955397 218.955397 0 0 0 300.094409 81.710807l73.482547-42.424351a218.955397 218.955397 0 0 0 86.285162-287.891481l107.943616-62.325584a29.677521 29.677521 0 0 0 14.796922-25.633122z m-241.757439 108.13886301l21.240068 36.776139a107.915724 107.915724 0 0 1-39.509595 147.508996l-69.270793 39.983765a107.985455 107.985455 0 0 1-147.634512-39.74668 42.075696 42.075696 0 0 1-5.578481-20.91930501 42.689329 42.689329 0 0 1 21.281906-36.85981599l219.471407-126.743099z" fill="#6244E2" p-id="5047"></path><path d="M994.364317 271.411854a3.402874 3.402874 0 0 0 1.241212-4.644085 45.576193 45.576193 0 0 0-15.034007-15.759211l-401.511202 231.771958 12.300552 21.295853z" fill="#D7CAFF" p-id="5048"></path><path d="M566.765347 562.467729l24.59413-42.598679L994.39221 752.561457a3.402874 3.402874 0 0 1 1.24539599 4.64827 45.799333 45.799333 0 0 1-62.56266999 16.763337L566.759768 562.478886l0.006974-0.011157z" fill="#AF9CFF" p-id="5049"></path><path d="M996.065754 755.484582a3.388927 3.388927 0 0 1-0.46022499 1.701436 45.799333 45.799333 0 0 1-62.54872301 16.735445L566.759768 562.455177l24.601104-42.605652 403.045284 232.678461a3.402874 3.402874 0 0 1 1.701437 2.942649m27.892407 0a31.378958 31.378958 0 0 0-15.64764-27.097473l-403.045285-232.678461-24.154824-13.946204-13.946204 24.154825-24.545318 42.605652-13.946204 24.154825 24.154825 13.946203L919.110603 798.090234a73.69174 73.69174 0 0 0 100.649751-26.971958 31.33712 31.33712 0 0 0 4.183861-15.647641z" fill="#6244E2" p-id="5050"></path><path d="M375.93386399 134.934306l-73.48254599-42.424352a191.146667 191.146667 0 0 0-261.853919 71.320886c-26.665141 47.026599-9.762343 106.841866 36.999278 133.883554l318.838107 184.089888 131.777678 76.076541a1.701437 1.701437 0 0 0 2.329016-0.627579l40.276636-69.731018a1.701437 1.701437 0 0 0-0.627579-2.329017l-118.751924-68.559536a15.034007 15.034007 0 0 1-5.494804-20.528812 191.146667 191.146667 0 0 0-70.00994301-261.170555z m-23.08096599 35.116541a135.877862 135.877862 0 0 1 49.732162 185.610023l-24.489534 42.410406a21.393476 21.393476 0 0 1-29.217297 7.82382L123.73071801 275.902532a70.302812 70.302812 0 0 1-25.95388401-95.824365A135.877862 135.877862 0 0 1 283.554212 130.053135z" fill="#D7CAFF" p-id="5051"></path><path d="M571.013361 486.629668a1.687491 1.687491 0 0 1-0.22314 0.850719l-40.276636 69.731018a1.701437 1.701437 0 0 1-2.329016 0.627579l-131.777678-76.076541-318.838107-184.089887a99.255131 99.255131 0 0 1-49.676377-85.894668 97.009792 97.009792 0 0 1 12.677099-47.974941 191.146667 191.146667 0 0 1 261.881812-71.306939l73.482546 42.42435199a191.062989 191.062989 0 0 1 69.968104 261.11477 15.020061 15.020061 0 0 0 5.494804 20.52881201l118.751924 68.559536a1.701437 1.701437 0 0 1 0.850718 1.47829799M88.502608 214.943676a70.400436 70.400436 0 0 0 35.22811 61.014641l225.147511 129.992564a21.393476 21.393476 0 0 0 29.217297-7.879605l24.489534-42.410406a135.808131 135.808131 0 0 0-49.732162-185.610023l-69.270794-39.983766a135.877862 135.877862 0 0 0-185.80527 50.011086 69.731018 69.731018 0 0 0-9.30211801 34.865509m510.43105201 271.741777a29.677521 29.677521 0 0 0-14.796922-25.63312201l-107.943616-62.32558399a218.955397 218.955397 0 0 0-86.285162-287.891481l-73.482547-42.424351A218.955397 218.955397 0 0 0 16.303112 150.121722a125.432155 125.432155 0 0 0-16.303112 61.739843 127.468301 127.468301 0 0 0 63.622581 110.049493l318.838107 184.08988699 131.777678 76.07654101a29.621736 29.621736 0 0 0 40.44399-10.8362l40.27663599-69.731018a29.621736 29.621736 0 0 0 3.96072201-14.796922zM116.395015 214.943676a42.075696 42.075696 0 0 1 5.578482-20.919305A107.985455 107.985455 0 0 1 269.608008 154.263744l69.270793 39.983766a107.915724 107.915724 0 0 1 39.551434 147.467157l-21.254014 36.776139-219.513245-126.743099a42.689329 42.689329 0 0 1-21.267961-36.804031z" fill="#6244E2" p-id="5052"></path><path d="M994.364317 752.527986a3.402874 3.402874 0 0 1 1.241212 4.64408599 45.576193 45.576193 0 0 1-15.034007 15.75921001l-401.511202-231.771957 12.300552-21.295853z" fill="#D7CAFF" p-id="5053"></path><path d="M515.18670801 503.169866m0-10.989608a10.989608 10.989608 0 1 0 0 21.979216 10.989608 10.989608 0 1 0 0-21.979216Z" fill="#D7CAFF" p-id="5054"></path><path d="M526.17631601 503.169866a10.989608 10.989608 0 1 1-10.989608-10.989608 10.989608 10.989608 0 0 1 10.989608 10.989608m27.89240699 0a38.882016 38.882016 0 1 0-38.88201499 38.882016 38.923854 38.923854 0 0 0 38.88201499-38.882016z" fill="#6244E2" p-id="5055"></path></svg>