<svg xmlns="http://www.w3.org/2000/svg" xmlns:xlink="http://www.w3.org/1999/xlink" version="1.1" width="12.380379676818848" height="7.210261821746826" viewBox="0 0 12.380379676818848 7.210261821746826"><g><path d="M11.1292,0.15025C11.1292,0.15025,6.1902,5.09025,6.1902,5.09025C6.1902,5.09025,1.2512,0.15025,1.2512,0.15025C1.2512,0.15025,1.1322,0.0889897,1.1322,0.0889897C0.483463,-0.244976,-0.225111,0.42115,0.0681888,1.08926C0.0681888,1.08926,0.0681888,1.08926,0.0681888,1.08926C0.0681888,1.08926,6.1902,7.21026,6.1902,7.21026C6.1902,7.21026,12.3122,1.08926,12.3122,1.08926C12.3122,1.08926,12.3122,1.08926,12.3122,1.08926C12.6055,0.42115,11.8969,-0.244971,11.2482,0.0889947C11.2482,0.0889947,11.1292,0.15025,11.1292,0.15025C11.1292,0.15025,11.1292,0.15025,11.1292,0.15025Z" fill-opacity="1"/></g></svg>