<svg xmlns="http://www.w3.org/2000/svg" xmlns:xlink="http://www.w3.org/1999/xlink" fill="none" version="1.1" width="16" height="16" viewBox="0 0 16 16"><defs><clipPath id="master_svg0_2_135"><rect x="0" y="0" width="16" height="16" rx="0"/></clipPath></defs><g clip-path="url(#master_svg0_2_135)"><g><path d="M8.0000440234375,1.3333740234375C4.3167040234375005,1.3333740234375,1.3333749771115,4.3167040234375005,1.3333749771115,8.0000440234375C1.3318255734375,10.8703140234375,3.1686440234375,13.4189740234375,5.8920440234375,14.3253740234375C6.2253740234375,14.3833740234375,6.3500440234375,14.1833740234375,6.3500440234375,14.0080740234375C6.3500440234375,13.8500740234375,6.3413740234375,13.3253740234375,6.3413740234375,12.7666740234375C4.6667040234375,13.0753740234375,4.2333740234375,12.3586740234375,4.1000440234374995,11.9833740234375C4.0247040234375,11.7913740234375,3.7000440234375,11.2000440234375,3.4167040234375,11.0413740234375C3.1833740234375,10.9167040234375,2.8500440234375,10.6080440234375,3.4080440234375,10.6000440234375C3.9333740234375,10.5913740234375,4.3080440234375,11.0833740234375,4.4333740234375,11.2833740234375C5.0333740234375,12.2913740234375,5.9920440234375,12.0080740234375,6.3747040234375,11.8333740234375C6.4333740234375,11.4000740234375,6.6080440234375,11.1087140234375,6.8000440234375,10.9420440234375C5.3167140234375,10.7753740234375,3.7667040234375,10.2000440234375,3.7667040234375,7.6500440234375C3.7667040234375,6.9247040234375,4.0247040234375,6.3253740234375,4.4500440234375,5.8580440234375C4.3833740234375,5.6913740234375,4.1500440234375,5.0080440234375,4.5167040234375,4.0913740234375Q5.0747040234375,3.9167040234375,6.3500440234375,4.7753740234375C6.8927540234375,4.6247540234375,7.4534840234375,4.5489340234375,8.0167040234375,4.550044023437501C8.5833740234375,4.550044023437501,9.1500440234375,4.6247140234375,9.6833740234375,4.7747140234375Q10.9580440234375,3.9080440234375,11.5166740234375,4.0920440234375C11.8833740234375,5.008704023437501,11.6500740234375,5.6920440234375,11.5833740234375,5.8587040234375C12.0080740234375,6.3253740234375,12.2666740234375,6.9167040234375,12.2666740234375,7.6500440234375C12.2666740234375,10.2087140234375,10.7087140234375,10.7753740234375,9.2253740234375,10.9420440234375C9.4667140234375,11.1500440234375,9.6753740234375,11.5500740234375,9.6753740234375,12.1753740234375C9.6753740234375,13.0666740234375,9.6667140234375,13.7833740234375,9.6667140234375,14.0086740234375C9.6667140234375,14.1833740234375,9.7920440234375,14.3913740234375,10.1253740234375,14.3246740234375C12.8388740234375,13.4085740234375,14.6659740234375,10.8640140234375,14.6666740234375,8.0000440234375C14.6666740234375,4.3167040234375005,11.6833740234375,1.3333740234375,8.0000440234375,1.3333740234375Z" fill="#435565" fill-opacity="1"/></g></g></svg>