<?xml version="1.0" standalone="no"?><!DOCTYPE svg PUBLIC "-//W3C//DTD SVG 1.1//EN" "http://www.w3.org/Graphics/SVG/1.1/DTD/svg11.dtd"><svg t="1721894533803" class="icon" viewBox="0 0 1024 1024" version="1.1" xmlns="http://www.w3.org/2000/svg" p-id="5105" xmlns:xlink="http://www.w3.org/1999/xlink" width="200" height="200"><path d="M514.664 50.664c-256.368 0-464 207.72-464 463.944 0 256.336 207.752 464.056 464 464.056 256.256 0 464-207.72 464-464.056 0-256.224-207.856-463.944-464-463.944z m-2.784 152c21.6 0 39.12 17.52 39.12 39.12v274.128l148.824 148.832a38.8 38.8 0 0 1 0.024 54.84 39.104 39.104 0 0 1-55.048 0.304L475.168 553.584a8 8 0 0 1-2.4-5.712V241.776c0-21.6 17.52-39.112 39.12-39.112z"  p-id="5106"></path></svg>